<svg width="54" height="40" viewBox="0 0 54 40" fill="none" xmlns="http://www.w3.org/2000/svg">
<g clip-path="url(#clip0_632_13922)">
<path d="M18.3335 9.99034C18.3335 6.7803 20.935 4.16803 24.1319 4.16803V0C18.6374 0 14.1826 4.4732 14.1826 9.99034C14.1826 15.5075 18.6374 19.9807 24.1319 19.9807V15.8127C20.935 15.8127 18.3335 13.2014 18.3335 9.99034Z" fill="black"/>
<path d="M4.2334 0V4.16803C7.43024 4.16803 10.0318 6.7803 10.0318 9.99034C10.0318 13.2004 7.4312 15.8127 4.2334 15.8127V19.9807C9.72784 19.9807 14.1826 15.5075 14.1826 9.99034C14.1826 4.4732 9.7288 0 4.2334 0Z" fill="black"/>
<path d="M4.23341 4.1709H0.0825195V15.8107H4.23341V4.1709Z" fill="black"/>
<path d="M44.0303 0V4.16803C47.2271 4.16803 49.8286 6.7803 49.8286 9.99034C49.8286 13.2004 47.2281 15.8127 44.0303 15.8127V19.9807C49.5247 19.9807 53.9795 15.5075 53.9795 9.99034C53.9795 4.4732 49.5257 0 44.0303 0Z" fill="black"/>
<path d="M44.0303 4.1709H39.8794V15.8107H44.0303V4.1709Z" fill="black"/>
<path d="M24.1321 7.9043H22.0566V12.0723H24.1321V15.8126H28.283V12.0723C28.283 9.77006 26.4249 7.9043 24.1321 7.9043Z" fill="black"/>
<path d="M39.0562 15.8127C35.8593 15.8127 33.2578 13.2004 33.2578 9.99034V9.98841V0H29.1069V9.99034C29.1069 15.5075 33.5617 19.9807 39.0562 19.9807V15.8127Z" fill="black"/>
<path d="M0.120117 30.829V23.4307H3.81514C6.22431 23.4307 7.75059 24.7885 7.75059 27.1294C7.75059 29.4703 6.22431 30.8281 3.81514 30.8281H0.120117V30.829ZM2.16959 25.2974V28.9633H3.81514C5.11253 28.9633 5.55878 28.7981 5.55878 27.1303C5.55878 25.4625 5.11157 25.2974 3.81514 25.2974H2.16959Z" fill="black"/>
<path d="M8.29492 30.829V23.4307H10.3444V30.829H8.29492Z" fill="black"/>
<path d="M10.8887 27.1291C10.8887 24.821 12.4582 23.3193 15.1184 23.3193C17.593 23.3193 19.0645 24.4232 19.0645 26.2561V26.3333H16.7755V26.2561C16.7755 25.5714 16.361 25.3068 15.0646 25.3068C13.495 25.3068 13.0699 25.6602 13.0699 27.1291C13.0699 28.5979 13.4729 28.9514 14.9559 28.9514C16.4389 28.9514 16.9073 28.8741 17.0054 28.3111H14.7597V26.7872H19.076V30.8288H17.1689V29.2498H17.0602C16.864 30.1112 16.2427 30.9388 14.5318 30.9388C12.2322 30.9388 10.8906 29.4372 10.8906 27.1291H10.8887Z" fill="black"/>
<path d="M19.686 30.829V23.4307H21.7355V30.829H19.686Z" fill="black"/>
<path d="M22.3892 30.829V23.4307H24.4386V28.9623H28.6568V30.8281H22.3892V30.829Z" fill="black"/>
<path d="M28.7656 30.829L31.9163 23.4307H34.8487L38.0099 30.829H35.6556L35.0997 29.4596H31.6335L31.0671 30.829H28.7675H28.7656ZM32.4068 27.5939H34.3466L33.9215 26.5557L33.4416 25.308H33.3002L32.8319 26.5557L32.4068 27.5939Z" fill="black"/>
<path d="M38.2275 30.829V23.4307H40.4078L42.4352 26.2023L43.5037 27.9029H43.645L43.5469 26.2911V23.4316H45.5964V30.83H43.4161L41.258 27.9811L40.3318 26.5239H40.1905L40.278 27.9377V30.831H38.2285L38.2275 30.829Z" fill="black"/>
<path d="M46.3696 30.829V23.4307H50.0646C52.4738 23.4307 54.0001 24.7885 54.0001 27.1294C54.0001 29.4703 52.4738 30.8281 50.0646 30.8281H46.3696V30.829ZM48.4191 25.2974V28.9633H50.0646C51.362 28.9633 51.8083 28.7981 51.8083 27.1303C51.8083 25.4625 51.3611 25.2974 50.0646 25.2974H48.4191Z" fill="black"/>
<path d="M0.0326989 39.8903V39.3495C0.0326989 37.9251 0.545309 37.2297 2.01678 36.688L3.65174 36.1027C4.7087 35.7049 5.05781 35.3408 5.05781 34.5566C5.05781 33.5851 4.39325 33.1216 3.00834 33.1216C1.42819 33.1216 0.774203 33.7396 0.774203 34.8444V34.9767H0V34.8772C0 33.5629 0.893461 32.3818 3.03046 32.3818C4.99241 32.3818 5.84259 33.3649 5.84259 34.5566C5.84259 35.7483 5.14533 36.3345 3.85852 36.7758L2.36493 37.2838C1.16563 37.7145 0.828063 38.2003 0.828063 39.2384L2.46303 39.1718H5.82047V39.8893H0.0326989V39.8903Z" fill="black"/>
<path d="M6.60547 36.1916C6.60547 33.8179 7.91344 32.3818 9.99562 32.3818C12.0778 32.3818 13.3742 33.8169 13.3742 36.1916C13.3742 38.5663 12.0663 40.0013 9.99562 40.0013C7.92498 40.0013 6.60547 38.5769 6.60547 36.1916ZM12.5567 36.1916C12.5567 34.1269 11.6844 33.1332 9.99562 33.1332C8.30679 33.1332 7.42295 34.1269 7.42295 36.1916C7.42295 38.2563 8.29525 39.25 9.99562 39.25C11.696 39.25 12.5567 38.2563 12.5567 36.1916Z" fill="black"/>
<path d="M14.2358 39.8903V39.3495C14.2358 37.9251 14.7484 37.2297 16.2199 36.688L17.8549 36.1027C18.9118 35.7049 19.2609 35.3408 19.2609 34.5566C19.2609 33.5851 18.5964 33.1216 17.2115 33.1216C15.6313 33.1216 14.9773 33.7396 14.9773 34.8444V34.9767H14.2031V34.8772C14.2031 33.5629 15.0966 32.3818 17.2336 32.3818C19.1955 32.3818 20.0457 33.3649 20.0457 34.5566C20.0457 35.7483 19.3485 36.3345 18.0616 36.7758L16.5681 37.2838C15.3688 37.7145 15.0312 38.2003 15.0312 39.2384L16.6662 39.1718H20.0236V39.8893H14.2358V39.8903Z" fill="black"/>
<path d="M20.8305 37.7264V37.5718H21.6259V37.7264C21.6259 38.7867 22.454 39.2831 23.9803 39.2831C25.3431 39.2831 26.1163 38.808 26.1163 37.5825C26.1163 36.357 25.3642 35.9147 23.9908 35.9147C22.8896 35.9147 22.2145 36.1464 21.6798 36.5105L21.6471 36.4999V36.5105L20.9277 36.4004L21.298 32.4912H26.6174V33.2087H21.9741L21.6903 36.0354L21.7452 36.046C22.2135 35.6481 23.1291 35.2619 24.2197 35.2619C25.822 35.2619 26.9338 36.0682 26.9338 37.5805C26.9338 39.0929 25.7999 39.9987 23.9687 39.9987C21.9635 39.9987 20.8296 39.0929 20.8296 37.7244L20.8305 37.7264Z" fill="black"/>
</g>
<defs>
<clipPath id="clip0_632_13922">
<rect width="54" height="40" fill="white"/>
</clipPath>
</defs>
</svg>
